<?xml version="1.0" encoding="utf-8"?>
<!-- Generator: Adobe Illustrator 18.1.1, SVG Export Plug-In . SVG Version: 6.00 Build 0)  -->
<svg version="1.1" id="Layer_1" xmlns="http://www.w3.org/2000/svg" xmlns:xlink="http://www.w3.org/1999/xlink" x="0px" y="0px"
	 width="256px" height="256px" viewBox="0 0 256 256" style="enable-background:new 0 0 256 256;" xml:space="preserve">
<style type="text/css">
	.st0{fill:#3B3A33;}
</style>
<g>
	<path class="st0" d="M37.4,107.3l0.3-0.3c0.4-1.6,1.1-7-4.1-12c-5.2-5-11.4-5.2-13.3-5.1l-0.1,0.1c0,1.8,0.3,7.9,5.3,13.1
		C30.7,108.2,35.8,107.6,37.4,107.3z"/>
	<path class="st0" d="M142.5,170.2c3.6-3.7,3.8-8.1,3.8-9.5l-0.1,0c-1.3-0.1-5.8,0.1-9.6,3.7c-0.7,0.7-1.2,1.3-1.7,2v-14.2
		c3.2,2.8,7.4,4.5,12,4.5h48.9c6.4,0,12.1-3.3,15.3-8.4h10.7c10.1,0,18.2-8.2,18.2-18.2v-16.9c1.7,0.1,4.6-0.3,7.4-3.3
		c3.6-3.8,3.9-8.2,3.8-9.5l0,0c-1.4-0.1-5.8,0.1-9.6,3.7c-0.7,0.6-1.2,1.3-1.6,1.9v-1.1c0-1.7-1.4-3.1-3.1-3.1
		c-1.7,0-3.1,1.4-3.1,3.1v13c-0.1-0.1-0.2-0.2-0.2-0.3c-3.8-3.7-8.3-3.8-9.6-3.7l0,0.1c0,1.3,0.2,5.7,3.9,9.5c2.2,2.3,4.4,3,6.1,3.2
		v3.3c0,6.6-5.4,11.9-11.9,11.9h-8.1c0.2-0.9,0.3-1.9,0.3-2.8c0.2-1.4,0.3-4.5-2.8-7.5c-3.4-3.3-7.5-3.4-8.7-3.4l0,0
		c0,1.2,0.2,5.2,3.5,8.6c0.6,0.6,1.2,1.1,1.7,1.5c0,0,0,0,0,0c0,6.6-5.4,12-12,12h-11.5c2.8-3.2,4.5-7.4,4.5-12v-24
		c2.2,0.2,6.6,0,10.8-4.5c5-5.2,5.3-11.3,5.3-13.1l-0.1-0.1c-1.9-0.1-8,0.1-13.3,5.1c-1.3,1.2-2.2,2.4-2.8,3.6V87.5
		c0-0.2,0-0.3,0-0.5c0,0,0-0.2,0-0.4c1.2,0.2,4.4,0.4,7.6-2.8c3.3-3.4,3.5-7.4,3.5-8.6l0,0c-1.2,0-5.3,0.1-8.7,3.4c-1,1-1.7,2-2.1,3
		c0.4-2.4,1.2-5.1,3.1-7.2c2.4-2.8,6.3-4.2,11.4-4.2c1.7,0,3.1-1.4,3.1-3.1s-1.4-3.1-3.1-3.1c-7.1,0-12.5,2.2-16.2,6.4
		c-5.7,6.6-4.9,15.8-4.7,17.5v8.5c-0.7-1.5-1.7-3.1-3.3-4.7c-5.2-5-11.4-5.2-13.3-5.1l-0.1,0.1c0,1.8,0.3,7.9,5.3,13.1
		c4.6,4.8,9.4,4.7,11.4,4.4v17.3c-0.8-1.2-1.8-2.5-3.1-3.7c-6.5-6.3-14.2-6.5-16.5-6.4l-0.1,0.1c0,2.3,0.3,9.8,6.6,16.3
		c5,5.2,10.2,5.8,13,5.6v5.4c0,6.6-5.4,12-11.9,12H147c-6.3,0-11.5-5-11.9-11.2l0.1,0.1c1.1,0.2,4.9,0.7,8.5-3.1
		c3.6-3.7,3.8-8.1,3.8-9.5l-0.1,0c-1.3-0.1-5.8,0.1-9.6,3.7c-1.7,1.7-2.5,3.4-2.9,4.8v-10.8c0.4,0.1,0.7,0.2,1.2,0.2
		c10.1,0,18.2-8.2,18.2-18.2V90.4c1.6,0.2,4.7-0.1,7.8-3.2c3.6-3.7,3.8-8.1,3.8-9.5l0,0c-1.3-0.1-5.8,0.1-9.6,3.7
		c-0.9,0.8-1.5,1.7-2,2.5V56.1c1.7,0.3,6.8,0.8,11.8-4.3c5-5.2,5.3-11.3,5.3-13.1l-0.1-0.1c-1.9-0.1-8.1,0.1-13.3,5.1
		c-2,1.9-3.1,3.9-3.7,5.6V32.1c0-1.7-1.4-3.1-3.1-3.1c-1.2,0-2.3,0.7-2.8,1.7c-0.6-2.6-2-5.7-5.1-8.7c-6.5-6.3-14.2-6.5-16.5-6.4
		l-0.1,0.1c0,2.3,0.3,9.8,6.6,16.3c6.3,6.5,12.7,5.8,14.7,5.4l0,0v23.3c-0.7-1.5-1.7-3.1-3.3-4.7c-5.2-5-11.4-5.2-13.3-5.1l-0.1,0.1
		c0,1.8,0.3,7.9,5.3,13.1c4.6,4.8,9.4,4.7,11.4,4.4v38.1c0,6.6-5.4,12-12,12c-0.4,0-0.8,0.1-1.2,0.2v-5.3c0,0,0,0,0-0.1v-9.3l0,0
		c1,0.2,4.4,0.6,7.7-2.8c3.3-3.4,3.5-7.3,3.4-8.5l0,0c-1.2,0-5.2,0.1-8.6,3.3c-1.4,1.3-2.1,2.7-2.5,3.9V80.8
		c0-10.1-8.2-18.2-18.2-18.2h-3.3c-0.1-1.7-0.7-4.1-3.1-6.5c-3.7-3.6-8.1-3.7-9.4-3.6l0,0c0,1.3,0.2,5.6,3.8,9.3
		c0.3,0.3,0.5,0.5,0.8,0.8H94.9c-0.5-2.7-1.9-6-5.2-9.1c-6.5-6.3-14.2-6.5-16.5-6.4l-0.1,0.1c0,2.3,0.3,9.8,6.6,16.3
		c5.9,6.1,11.9,5.8,14.3,5.4h22.8c6.6,0,12,5.4,12,11.9v9c-0.8-2.2-2.2-4.6-4.6-7c-6.5-6.3-14.2-6.5-16.5-6.4l-0.1,0.1
		c0,2.3,0.3,9.8,6.6,16.3c6.2,6.4,12.5,5.8,14.6,5.4v30.3c0,0,0,0,0,0v9.9c-0.7-1.4-1.7-2.9-3.2-4.4c-5.2-5-11.4-5.2-13.3-5.1
		l-0.1,0.1c0,1.8,0.3,7.9,5.3,13.1c4.6,4.7,9.2,4.7,11.3,4.4v7.2c0,6.6-5.4,12-12,12h-11.1c2.8-3.2,4.5-7.4,4.5-12v-39.2
		c1.5,0.2,4.7,0.1,7.8-3.1c3.5-3.6,3.7-7.9,3.7-9.2l0,0c-1.3-0.1-5.6,0.1-9.3,3.6c-1,1-1.7,2-2.2,2.9v-5.9c0-9.7-7.7-17.7-17.3-18.2
		c-0.5-1-1.2-2.1-2.3-3.2c-3.7-3.6-8.1-3.7-9.4-3.6l0,0c0,1.3,0.2,5.6,3.8,9.3c1.7,1.8,3.5,2.6,5,3c0.6,0.5,1.3,0.8,2.1,0.8
		c6.6,0,11.9,5.4,11.9,12v17.5c-0.7-1.4-1.7-2.8-3.1-4.2c-5.2-5-11.4-5.2-13.3-5.1l-0.1,0.1c0,1.8,0.3,7.9,5.3,13.1
		c4.5,4.6,9.1,4.7,11.2,4.4v17.9c-0.7-2-2-4.2-4.2-6.3c-5.9-5.7-12.9-5.9-15-5.8l-0.1,0.1c0,2.1,0.3,8.9,6,14.8
		c5.6,5.8,11.3,5.3,13.2,4.9c-0.2,6.4-5.5,11.6-11.9,11.6H81.5H67.4v-5c1.6,0.3,5.6,0.3,9.4-3.6c4.2-4.3,4.4-9.3,4.4-10.9l-0.1-0.1
		c-1.5-0.1-6.7,0.1-11,4.3c-1.3,1.3-2.2,2.6-2.7,3.8v-25.9c1.5,0.2,4.7,0.1,7.8-3.1c3.5-3.6,3.7-7.9,3.7-9.2l0,0
		c-1.3-0.1-5.6,0.1-9.3,3.6c-1,1-1.7,1.9-2.1,2.9c0.3-6.3,5.5-11.4,11.9-11.4c1.7,0,3.1-1.4,3.1-3.1s-1.4-3.1-3.1-3.1
		c-10.1,0-18.2,8.2-18.2,18.2V133c-0.4-1-1.1-2.2-2.3-3.2c-3.5-3.3-7.5-3.4-8.8-3.4l0,0c0,1.2,0.2,5.2,3.5,8.7
		c3.1,3.2,6.3,3.1,7.6,2.9v27.6h-4.8c-5.7,0-10.5-4-11.7-9.3l0.1,0.1c1.3,0.3,5.6,0.8,9.8-3.6c4.2-4.3,4.4-9.3,4.4-10.9l-0.1-0.1
		c-1.5-0.1-6.7,0.1-11,4.3c-2.4,2.3-3.3,4.6-3.5,6.5v-38.6c0,0.2,0.1,0.4,0.1,0.6l0.3,0.3c1.6,0.3,6.8,0.9,11.8-4.3
		c5-5.2,5.3-11.3,5.3-13.1l-0.1-0.1c-1.9-0.1-8,0.1-13.3,5.1c-2.8,2.7-3.9,5.4-4.2,7.7V86.7c0-1.7-1.4-3.1-3.1-3.1
		c-1.7,0-3.1,1.4-3.1,3.1v40c-0.8-1.9-2.1-3.9-4.2-5.8c-6.5-6.3-14.2-6.5-16.5-6.4l-0.1,0.1c0,2.3,0.3,9.8,6.6,16.3
		c5.8,6,11.7,5.8,14.2,5.4v17.2c0,4.6,1.7,8.7,4.5,12H27.7c-5.4,0-10-3.7-11.5-8.7c2.2,0.3,6.6,0.1,11-4.4c5-5.2,5.3-11.3,5.3-13.1
		l-0.1-0.1c-1.9-0.1-8.1,0.1-13.3,5.1c-2.6,2.5-3.7,5.1-4.2,7.2c-0.6-0.7-1.5-1.2-2.4-1.2c-0.5,0-1,0.1-1.4,0.4
		c-0.3-1.4-1-3.1-2.7-4.7c-3.5-3.3-7.5-3.4-8.8-3.4l0,0c0,1.2,0.2,5.2,3.5,8.7c2.4,2.4,4.8,3,6.3,3c0.4,9.7,8.4,17.4,18.2,17.4h28.6
		h4.8v2c0,0.6,0,1.2,0.1,1.8c-3-1.9-5.9-2-6.9-1.9l0,0c0,1.2,0.2,5.2,3.5,8.7c3,3.1,6.1,3.1,7.5,2.9c2.9,3.6,7.2,6.1,12,6.6
		c-1.6,0.4-3.6,1.3-5.6,3.3c-3.9,4.1-4.1,8.8-4.1,10.2l0.1,0.1c1.4,0.1,6.3-0.1,10.3-4c4.1-4,3.5-8.1,3.2-9.4l0,0h19.7
		c-1,0.4-2,1.1-3,2.2c-3.3,3.4-3.5,7.4-3.5,8.6l0,0c1.2,0.1,5.3-0.1,8.7-3.4c3-2.9,3-6,2.8-7.4c6,0.6,10.7,5.7,10.7,11.9V223
		c0,6.6-5.4,12-12,12c-1.7,0-3.1,1.4-3.1,3.1c0,1.7,1.4,3.1,3.1,3.1c10.1,0,18.2-8.2,18.2-18.2v-18.9c0-2.8-0.6-5.4-1.7-7.8
		c8-2,13.9-9.2,13.9-17.7v-5.1C136.7,173.5,139.6,173.2,142.5,170.2z M116.8,190.5c-3.2-2.9-7.5-4.7-12.2-4.7h-0.1c0,0,0,0,0,0H85.8
		c0.9-0.4,1.8-1.1,2.7-2c3.3-3.4,3.4-7.3,3.4-8.5l0,0c-1.2-0.1-5.2,0.1-8.6,3.3c-2.9,2.8-3,5.8-2.8,7.2h-1.2
		c-6.6,0-11.9-5.4-11.9-11.9v-2h14.1h10.4h24.8c4.6,0,8.7-1.7,12-4.5v11.2C128.7,185.2,123.4,190.5,116.8,190.5z"/>
	<path class="st0" d="M154.7,32.1c1,0.2,4.4,0.6,7.7-2.8c3.3-3.4,3.5-7.3,3.4-8.5l0,0c-1.2,0-5.2,0.1-8.6,3.3
		c-3.4,3.3-2.9,6.8-2.7,7.8L154.7,32.1z"/>
	<path class="st0" d="M256.4,138.2L256.4,138.2c-1.4-0.1-5.9,0-9.7,3.7c-0.6,0.5-1,1.1-1.4,1.6c-0.5-1.2-1.6-2-2.9-2
		c-1.7,0-3.1,1.4-3.1,3.1v18.3c-0.7-1.6-1.7-3.2-3.4-4.9c-5.2-5-11.3-5.2-13.2-5.1l-0.1,0.1c0,1.8,0.3,7.8,5.3,13
		c4.7,4.8,9.4,4.7,11.4,4.3c-0.3,6.3-5.5,11.4-11.9,11.4h-29.1c1.1-0.6,2.1-1.4,3.2-2.6c4.7-4.9,5-10.5,5-12.3l-0.1-0.1
		c-1.7-0.1-7.5,0.1-12.4,4.8c-4,3.9-4.3,7.9-4,10.1h-13.5c-6.2,0-11.3-4.7-11.9-10.7h20.4c0.9,0,1.7-0.4,2.3-1
		c1.5-0.1,3.5-0.7,5.5-2.8c3.1-3.2,3.3-7,3.3-8.2l0,0c-1.2,0-5,0.1-8.3,3.2c-0.9,0.9-1.5,1.8-1.9,2.6c-0.3-0.1-0.5-0.1-0.8-0.1
		h-25.2c-10.1,0-18.2,8.2-18.2,18.2v39.9c0,10.1,8.2,18.2,18.2,18.2c1.7,0,3.1-1.4,3.1-3.1c0-1.7-1.4-3.1-3.1-3.1
		c-6.6,0-11.9-5.4-11.9-12v-20.4c1.1,0.1,3.1-0.1,5.1-2.1c2.4-2.5,2.5-5.4,2.5-6.2l0,0c-0.9,0-3.8,0-6.3,2.4c-0.6,0.5-1,1.1-1.3,1.6
		v-7.9c1.5,0.1,3.9-0.3,6.3-2.8c3.1-3.2,3.3-7,3.3-8.2l0,0c-1.2,0-5,0.1-8.3,3.2c-0.5,0.5-0.9,1-1.3,1.5v-1
		c0-6.1,4.6-11.1,10.4-11.8c0.7,9.4,8.6,16.9,18.2,16.9h27.4c-0.3,2-0.2,6.2,4.1,10.4c4.9,4.7,10.5,5,12.3,5l0.1-0.1
		c0.1-1.7-0.1-7.5-4.8-12.4c-1.3-1.3-2.6-2.2-3.9-2.9h15.8c10.1,0,18.2-8.2,18.2-18.2V151c1.7,0,4.4-0.6,7-3.3
		C256.2,143.9,256.4,139.5,256.4,138.2z"/>
</g>
<g>
</g>
<g>
</g>
<g>
</g>
<g>
</g>
<g>
</g>
<g>
</g>
<g>
</g>
<g>
</g>
<g>
</g>
<g>
</g>
<g>
</g>
<g>
</g>
<g>
</g>
<g>
</g>
<g>
</g>
</svg>
